<?xml version="1.0" encoding="UTF-8" standalone="no"?>
<!DOCTYPE svg PUBLIC "-//W3C//DTD SVG 1.1//EN"
 "http://www.w3.org/Graphics/SVG/1.1/DTD/svg11.dtd">
<!-- Generated by graphviz version 2.40.1 (20161225.0304)
 -->
<!-- Title: dependencies Pages: 1 -->
<svg width="822pt" height="360pt"
 viewBox="0.00 0.00 822.00 360.00" xmlns="http://www.w3.org/2000/svg" xmlns:xlink="http://www.w3.org/1999/xlink">
<g id="graph0" class="graph" transform="scale(1 1) rotate(0) translate(4 356)">
<title>dependencies</title>
<polygon fill="#ffffff" stroke="transparent" points="-4,4 -4,-356 818,-356 818,4 -4,4"/>
<text text-anchor="start" x="386.0091" y="-42.4" font-family="sans-serif" font-weight="bold" font-size="14.00" fill="#000000">Legend</text>
<polygon fill="#ffffb3" stroke="transparent" points="173,-10 173,-30 193,-30 193,-10 173,-10"/>
<text text-anchor="start" x="196.629" y="-15.4" font-family="sans-serif" font-size="14.00" fill="#000000"> &#160;Declarations</text>
<polygon fill="#8dd3c7" stroke="transparent" points="286,-10 286,-30 306,-30 306,-10 286,-10"/>
<text text-anchor="start" x="309.7251" y="-15.4" font-family="sans-serif" font-size="14.00" fill="#000000"> &#160;Module</text>
<polygon fill="#80b1d3" stroke="transparent" points="372,-10 372,-30 392,-30 392,-10 372,-10"/>
<text text-anchor="start" x="395.7812" y="-15.4" font-family="sans-serif" font-size="14.00" fill="#000000"> &#160;Bootstrap</text>
<polygon fill="#fdb462" stroke="transparent" points="469,-10 469,-30 489,-30 489,-10 469,-10"/>
<text text-anchor="start" x="492.6732" y="-15.4" font-family="sans-serif" font-size="14.00" fill="#000000"> &#160;Providers</text>
<polygon fill="#fb8072" stroke="transparent" points="565,-10 565,-30 585,-30 585,-10 565,-10"/>
<text text-anchor="start" x="588.7258" y="-15.4" font-family="sans-serif" font-size="14.00" fill="#000000"> &#160;Exports</text>
<g id="clust1" class="cluster">
<title>cluster_AppModule</title>
<polygon fill="none" stroke="#000000" stroke-dasharray="1,5" points="14,-146 14,-344 616,-344 616,-146 14,-146"/>
</g>
<g id="clust2" class="cluster">
<title>cluster_AppModule_declarations</title>
<polygon fill="none" stroke="#000000" points="210,-154 210,-206 608,-206 608,-154 210,-154"/>
</g>
<g id="clust6" class="cluster">
<title>cluster_AppModule_imports</title>
<polygon fill="none" stroke="#000000" points="22,-154 22,-206 202,-206 202,-154 22,-154"/>
</g>
<g id="clust8" class="cluster">
<title>cluster_AppModule_bootstrap</title>
<polygon fill="none" stroke="#000000" points="286,-284 286,-336 410,-336 410,-284 286,-284"/>
</g>
<g id="clust10" class="cluster">
<title>cluster_SharedAddProductModule</title>
<polygon fill="none" stroke="#000000" stroke-dasharray="1,5" points="624,-70 624,-206 806,-206 806,-70 624,-70"/>
</g>
<g id="clust11" class="cluster">
<title>cluster_SharedAddProductModule_declarations</title>
<polygon fill="none" stroke="#000000" points="633,-78 633,-130 797,-130 797,-78 633,-78"/>
</g>
<g id="clust17" class="cluster">
<title>cluster_SharedProductListModule</title>
<polygon fill="none" stroke="#000000" stroke-dasharray="1,5" points="8,-70 8,-138 216,-138 216,-70 8,-70"/>
</g>
<g id="clust18" class="cluster">
<title>cluster_SharedProductListModule_declarations</title>
<polygon fill="none" stroke="#000000" points="16,-78 16,-130 208,-130 208,-78 16,-78"/>
</g>
<!-- AppComponent -->
<g id="node1" class="node">
<title>AppComponent</title>
<polygon fill="#ffffb3" stroke="#000000" points="599.9399,-198 494.0601,-198 494.0601,-162 599.9399,-162 599.9399,-198"/>
<text text-anchor="middle" x="547" y="-175.8" font-family="Times,serif" font-size="14.00" fill="#000000">AppComponent</text>
</g>
<!-- AppModule -->
<g id="node4" class="node">
<title>AppModule</title>
<polygon fill="#8dd3c7" stroke="#000000" points="389.6571,-263 386.6571,-267 365.6571,-267 362.6571,-263 306.3429,-263 306.3429,-227 389.6571,-227 389.6571,-263"/>
<text text-anchor="middle" x="348" y="-240.8" font-family="Times,serif" font-size="14.00" fill="#000000">AppModule</text>
</g>
<!-- AppComponent&#45;&gt;AppModule -->
<g id="edge1" class="edge">
<title>AppComponent&#45;&gt;AppModule</title>
<path fill="none" stroke="#000000" d="M547,-198.1061C547,-217.3391 547,-245 547,-245 547,-245 399.7169,-245 399.7169,-245"/>
<polygon fill="#000000" stroke="#000000" points="399.717,-241.5001 389.7169,-245 399.7169,-248.5001 399.717,-241.5001"/>
</g>
<!-- FooterComponent -->
<g id="node2" class="node">
<title>FooterComponent</title>
<polygon fill="#ffffb3" stroke="#000000" points="475.8809,-198 358.1191,-198 358.1191,-162 475.8809,-162 475.8809,-198"/>
<text text-anchor="middle" x="417" y="-175.8" font-family="Times,serif" font-size="14.00" fill="#000000">FooterComponent</text>
</g>
<!-- FooterComponent&#45;&gt;AppModule -->
<g id="edge2" class="edge">
<title>FooterComponent&#45;&gt;AppModule</title>
<path fill="none" stroke="#000000" d="M373.9439,-198.1061C373.9439,-198.1061 373.9439,-216.991 373.9439,-216.991"/>
<polygon fill="#000000" stroke="#000000" points="370.444,-216.9909 373.9439,-226.991 377.444,-216.991 370.444,-216.9909"/>
</g>
<!-- HeaderComponent -->
<g id="node3" class="node">
<title>HeaderComponent</title>
<polygon fill="#ffffb3" stroke="#000000" points="339.7437,-198 218.2563,-198 218.2563,-162 339.7437,-162 339.7437,-198"/>
<text text-anchor="middle" x="279" y="-175.8" font-family="Times,serif" font-size="14.00" fill="#000000">HeaderComponent</text>
</g>
<!-- HeaderComponent&#45;&gt;AppModule -->
<g id="edge3" class="edge">
<title>HeaderComponent&#45;&gt;AppModule</title>
<path fill="none" stroke="#000000" d="M323.0218,-198.1061C323.0218,-198.1061 323.0218,-216.991 323.0218,-216.991"/>
<polygon fill="#000000" stroke="#000000" points="319.5218,-216.9909 323.0218,-226.991 326.5218,-216.991 319.5218,-216.9909"/>
</g>
<!-- AppComponent  -->
<g id="node6" class="node">
<title>AppComponent </title>
<polygon fill="#80b1d3" stroke="#000000" points="402.439,-328 293.561,-328 293.561,-292 402.439,-292 402.439,-328"/>
<text text-anchor="middle" x="348" y="-305.8" font-family="Times,serif" font-size="14.00" fill="#000000">AppComponent </text>
</g>
<!-- AppModule&#45;&gt;AppComponent  -->
<g id="edge5" class="edge">
<title>AppModule&#45;&gt;AppComponent </title>
<path fill="none" stroke="#000000" stroke-dasharray="1,5" d="M348,-263.1061C348,-263.1061 348,-281.991 348,-281.991"/>
<polygon fill="#000000" stroke="#000000" points="344.5001,-281.9909 348,-291.991 351.5001,-281.991 344.5001,-281.9909"/>
</g>
<!-- SharedProductListModule -->
<g id="node5" class="node">
<title>SharedProductListModule</title>
<polygon fill="#8dd3c7" stroke="#000000" points="193.7492,-198 190.7492,-202 169.7492,-202 166.7492,-198 30.2508,-198 30.2508,-162 193.7492,-162 193.7492,-198"/>
<text text-anchor="middle" x="112" y="-175.8" font-family="Times,serif" font-size="14.00" fill="#000000">SharedProductListModule</text>
</g>
<!-- SharedProductListModule&#45;&gt;AppModule -->
<g id="edge4" class="edge">
<title>SharedProductListModule&#45;&gt;AppModule</title>
<path fill="none" stroke="#000000" d="M112,-198.1061C112,-217.3391 112,-245 112,-245 112,-245 296.0799,-245 296.0799,-245"/>
<polygon fill="#000000" stroke="#000000" points="296.0799,-248.5001 306.0799,-245 296.0798,-241.5001 296.0799,-248.5001"/>
</g>
<!-- AddProductComponent -->
<g id="node7" class="node">
<title>AddProductComponent</title>
<polygon fill="#ffffb3" stroke="#000000" points="789.4874,-122 640.5126,-122 640.5126,-86 789.4874,-86 789.4874,-122"/>
<text text-anchor="middle" x="715" y="-99.8" font-family="Times,serif" font-size="14.00" fill="#000000">AddProductComponent</text>
</g>
<!-- SharedAddProductModule -->
<g id="node8" class="node">
<title>SharedAddProductModule</title>
<polygon fill="#8dd3c7" stroke="#000000" points="798.0772,-198 795.0772,-202 774.0772,-202 771.0772,-198 631.9228,-198 631.9228,-162 798.0772,-162 798.0772,-198"/>
<text text-anchor="middle" x="715" y="-175.8" font-family="Times,serif" font-size="14.00" fill="#000000">SharedAddProductModule</text>
</g>
<!-- AddProductComponent&#45;&gt;SharedAddProductModule -->
<g id="edge6" class="edge">
<title>AddProductComponent&#45;&gt;SharedAddProductModule</title>
<path fill="none" stroke="#000000" d="M715,-122.0109C715,-122.0109 715,-151.855 715,-151.855"/>
<polygon fill="#000000" stroke="#000000" points="711.5001,-151.8549 715,-161.855 718.5001,-151.855 711.5001,-151.8549"/>
</g>
<!-- ProductListViewComponent -->
<g id="node9" class="node">
<title>ProductListViewComponent</title>
<polygon fill="#ffffb3" stroke="#000000" points="200.4776,-122 23.5224,-122 23.5224,-86 200.4776,-86 200.4776,-122"/>
<text text-anchor="middle" x="112" y="-99.8" font-family="Times,serif" font-size="14.00" fill="#000000">ProductListViewComponent</text>
</g>
<!-- ProductListViewComponent&#45;&gt;SharedProductListModule -->
<g id="edge7" class="edge">
<title>ProductListViewComponent&#45;&gt;SharedProductListModule</title>
<path fill="none" stroke="#000000" d="M112,-122.0109C112,-122.0109 112,-151.855 112,-151.855"/>
<polygon fill="#000000" stroke="#000000" points="108.5001,-151.8549 112,-161.855 115.5001,-151.855 108.5001,-151.8549"/>
</g>
</g>
</svg>
